<?xml version="1.0" encoding="UTF-8"?>
<!DOCTYPE svg PUBLIC "-//W3C//DTD SVG 1.1//EN" "http://www.w3.org/Graphics/SVG/1.1/DTD/svg11.dtd">
<svg xmlns="http://www.w3.org/2000/svg" version="1.1" width="512px" height="512px" style="shape-rendering:geometricPrecision; text-rendering:geometricPrecision; image-rendering:optimizeQuality; fill-rule:evenodd; clip-rule:evenodd" xmlns:xlink="http://www.w3.org/1999/xlink">
<g><path style="opacity:0.972" fill="#000000" d="M 233.5,-0.5 C 248.167,-0.5 262.833,-0.5 277.5,-0.5C 373.926,11.1207 444.093,60.1207 488,146.5C 500.701,174.312 508.534,203.312 511.5,233.5C 511.5,248.167 511.5,262.833 511.5,277.5C 499.879,373.926 450.879,444.093 364.5,488C 336.688,500.701 307.688,508.534 277.5,511.5C 262.833,511.5 248.167,511.5 233.5,511.5C 196.039,507.63 160.706,496.63 127.5,478.5C 93.533,488.934 59.8663,499.934 26.5,511.5C 22.1667,511.5 17.8333,511.5 13.5,511.5C 6.83333,508.833 2.16667,504.167 -0.5,497.5C -0.5,493.167 -0.5,488.833 -0.5,484.5C 11.0659,451.134 22.0659,417.467 32.5,383.5C 14.3703,350.294 3.37029,314.961 -0.5,277.5C -0.5,262.833 -0.5,248.167 -0.5,233.5C 11.1207,137.074 60.1207,66.907 146.5,23C 174.312,10.2992 203.312,2.4659 233.5,-0.5 Z M 235.5,40.5 C 325.217,36.7693 394.051,72.4359 442,147.5C 475.554,209.634 479.554,273.634 454,339.5C 423.644,406.273 372.811,448.44 301.5,466C 243.357,477.588 189.024,467.921 138.5,437C 132.848,435.064 127.182,435.064 121.5,437C 98.1426,444.959 74.8093,452.126 51.5,458.5C 60.5176,432.783 68.5176,406.783 75.5,380.5C 73.9237,371.679 70.4237,363.679 65,356.5C 39.2182,305.685 33.5516,252.685 48,197.5C 65.1092,142.078 98.2759,99.2446 147.5,69C 174.974,53.3408 204.307,43.8408 235.5,40.5 Z"/></g>
<g><path style="opacity:0.96" fill="#000000" d="M 148.5,230.5 C 171.647,228.813 182.147,239.48 180,262.5C 172.185,280.111 159.351,284.944 141.5,277C 129.824,267.259 127.324,255.426 134,241.5C 137.857,236.468 142.69,232.801 148.5,230.5 Z"/></g>
<g><path style="opacity:0.96" fill="#000000" d="M 248.5,230.5 C 271.647,228.813 282.147,239.48 280,262.5C 272.185,280.111 259.351,284.944 241.5,277C 229.824,267.259 227.324,255.426 234,241.5C 237.857,236.468 242.69,232.801 248.5,230.5 Z"/></g>
<g><path style="opacity:0.96" fill="#000000" d="M 348.5,230.5 C 371.647,228.813 382.147,239.48 380,262.5C 372.185,280.111 359.351,284.944 341.5,277C 329.824,267.259 327.324,255.426 334,241.5C 337.857,236.468 342.69,232.801 348.5,230.5 Z"/></g>
</svg>
